<?xml version="1.0" encoding="UTF-8"?>
<svg id="Layer_1" data-name="Layer 1" xmlns="http://www.w3.org/2000/svg" viewBox="0 0 436 73"><defs><style>.cls-1{opacity:0.81;}.cls-2{fill:#675391;}</style></defs><title>choice clothing logo</title><g class="cls-1"><path class="cls-2" d="M11.56,50Q7.15,44.34,7.15,34t4.56-16q4.56-5.67,12.78-5.67a24.15,24.15,0,0,1,6.42.84,13.2,13.2,0,0,1,5,2.46,4.8,4.8,0,0,1,1.95,3.78,4,4,0,0,1-1.68,3.21,6.94,6.94,0,0,1-4.62,1.29q-.9-8.88-7-8.88-4.5,0-6.66,4.71T15.79,34q0,9.6,2.1,14.31T24.43,53a6.61,6.61,0,0,0,5.28-2.4q2-2.4,2.64-7.2a9.78,9.78,0,0,1,1.26-.12,6.51,6.51,0,0,1,3.75,1.08A3.38,3.38,0,0,1,39,47.28a5.91,5.91,0,0,1-2.16,4.56,14.2,14.2,0,0,1-5.61,2.91,26.09,26.09,0,0,1-7.23,1Q16,55.74,11.56,50Z"/><path class="cls-2" d="M73,54a6.48,6.48,0,0,1-4.38,1.74,4.71,4.71,0,0,1-3.18-1.08,3.67,3.67,0,0,1-1.26-2.94V36.42a20,20,0,0,0-1-7.32,3.57,3.57,0,0,0-3.57-2.34q-2.94,0-4.74,3.6t-1.8,10.38q0,6.6.18,8.85a14,14,0,0,0,1.14,4.47,6.52,6.52,0,0,1-4.38,1.68,4.51,4.51,0,0,1-3.24-1.2,4.19,4.19,0,0,1-1.26-3.18L45.49,15a3.82,3.82,0,0,1,1.14-3,4.33,4.33,0,0,1,3-1,7.22,7.22,0,0,1,2.76.54,7.87,7.87,0,0,1,2,1.14,25.77,25.77,0,0,0-1,5.64q-.24,3.12-.3,8.28v2.64a9.12,9.12,0,0,1,9.12-6.12q4.92,0,7.29,3t2.37,9.09V46.44A21.49,21.49,0,0,0,73,54Z"/><path class="cls-2" d="M82,51.45q-3.9-4.29-3.9-12t3.87-12.06q3.87-4.32,10.83-4.32t10.77,4.32q3.87,4.32,3.87,12.06t-3.87,12q-3.87,4.29-10.77,4.29T82,51.45Zm17.1-12q0-13.68-6.3-13.68-3.24,0-4.8,3.42T86.41,39.48q0,6.78,1.56,10.17T92.77,53Q99.07,53,99.07,39.48Z"/><path class="cls-2" d="M123.25,54a6.49,6.49,0,0,1-4.5,1.74,4.51,4.51,0,0,1-3.09-1.08,3.71,3.71,0,0,1-1.23-2.94V32.4a22,22,0,0,0-1.14-7.62,6.25,6.25,0,0,1,4.32-1.68,4.77,4.77,0,0,1,3.21,1,3.69,3.69,0,0,1,1.23,3l.06,19.32A20.59,20.59,0,0,0,123.25,54Zm-8.46-35.13a4.24,4.24,0,0,1-1.32-3.15,4.31,4.31,0,0,1,1.32-3.21A4.39,4.39,0,0,1,118,11.22a4.19,4.19,0,0,1,3.12,1.29,4.41,4.41,0,0,1,1.26,3.21,4.34,4.34,0,0,1-1.26,3.15A4.19,4.19,0,0,1,118,20.16,4.39,4.39,0,0,1,114.79,18.87Z"/><path class="cls-2" d="M132.52,51.48q-3.93-4.26-3.93-12.12,0-7.62,4-11.94t11.31-4.32q5.34,0,8.16,2.19a6.69,6.69,0,0,1,2.82,5.49,5.08,5.08,0,0,1-1.5,3.84,5.4,5.4,0,0,1-3.9,1.44,7.44,7.44,0,0,1-2.31-.36,4,4,0,0,1-1.77-1.08q1.74-1.38,1.74-4.5,0-4.32-3.9-4.32-2.94,0-4.62,3.24t-1.68,9.12q0,12.72,9.06,12.72a9,9,0,0,0,5.31-1.53,7,7,0,0,0,2.85-4q1,.42,1,2a6.54,6.54,0,0,1-.24,1.68A8.19,8.19,0,0,1,151,54a14.3,14.3,0,0,1-7.38,1.77Q136.45,55.74,132.52,51.48Z"/><path class="cls-2" d="M186.55,47.88a4.83,4.83,0,0,1-.42,1.8A8.56,8.56,0,0,1,182,54.15a15.33,15.33,0,0,1-7.26,1.59q-7,0-11-4.29t-4.08-12.09q0-7.62,4-11.94t11.28-4.32a15,15,0,0,1,8.76,2.37A7.67,7.67,0,0,1,187,32.16a7.72,7.72,0,0,1-3.54,6.78q-3.54,2.4-9.48,2.4a55.83,55.83,0,0,1-5.94-.24q.42,5.22,2.67,7.5A8.33,8.33,0,0,0,177,50.88a10.78,10.78,0,0,0,5.4-1.26,7.71,7.71,0,0,0,3.24-3.36A1.6,1.6,0,0,1,186.55,47.88ZM169.69,29.13Q168,32.46,168,38.34v.06l2,.06a11.49,11.49,0,0,0,6.21-1.56q2.49-1.56,2.49-6,0-5.1-4.14-5.1Q171.43,25.8,169.69,29.13Z"/><path class="cls-2" d="M209.8,50q-4.41-5.7-4.41-16.08t4.56-16q4.56-5.67,12.78-5.67a24.15,24.15,0,0,1,6.42.84,13.2,13.2,0,0,1,5,2.46,4.8,4.8,0,0,1,2,3.78,4,4,0,0,1-1.68,3.21,6.94,6.94,0,0,1-4.62,1.29q-.9-8.88-7-8.88-4.5,0-6.66,4.71T214,34q0,9.6,2.1,14.31T222.67,53a6.61,6.61,0,0,0,5.28-2.4q2-2.4,2.64-7.2a9.78,9.78,0,0,1,1.26-.12,6.51,6.51,0,0,1,3.75,1.08,3.38,3.38,0,0,1,1.59,2.94A5.91,5.91,0,0,1,235,51.84a14.2,14.2,0,0,1-5.61,2.91,26.09,26.09,0,0,1-7.23,1Q214.21,55.74,209.8,50Z"/><path class="cls-2" d="M245.53,53.31a9.12,9.12,0,0,1-1.86-6.09V15a3.74,3.74,0,0,1,1.26-3,4.8,4.8,0,0,1,3.24-1.08,6,6,0,0,1,2.58.54,6.4,6.4,0,0,1,1.8,1.2,33.31,33.31,0,0,0-.9,5.1q-.24,2.52-.24,6.6v22.2q0,3.18,2.16,3.18a2.82,2.82,0,0,0,1-.21,1.47,1.47,0,0,0,.78-.63,4.27,4.27,0,0,1,.78,2.46,3.59,3.59,0,0,1-1.53,3,6,6,0,0,1-3.75,1.17A6.62,6.62,0,0,1,245.53,53.31Z"/><path class="cls-2" d="M263.41,51.45q-3.9-4.29-3.9-12t3.87-12.06q3.87-4.32,10.83-4.32T285,27.42q3.87,4.32,3.87,12.06t-3.87,12q-3.87,4.29-10.77,4.29T263.41,51.45Zm17.1-12q0-13.68-6.3-13.68-3.24,0-4.8,3.42t-1.56,10.26q0,6.78,1.56,10.17t4.8,3.39Q280.51,53,280.51,39.48Z"/><path class="cls-2" d="M308.14,23.91q2.73-.09,3.09-.15l-.06,1.86a2,2,0,0,1-.6,1.41,1.93,1.93,0,0,1-1.38.51h-5.34v19q0,3.18,2.76,3.18a5.44,5.44,0,0,0,1.47-.21,1.31,1.31,0,0,0,.93-.63,3.93,3.93,0,0,1,.78,2.46,3.45,3.45,0,0,1-1.74,3,8.32,8.32,0,0,1-4.62,1.14,6.76,6.76,0,0,1-5.4-2.22,9,9,0,0,1-1.92-6.06V27.54h-.84a25.6,25.6,0,0,0-3.6.18l.06-1.86a1.88,1.88,0,0,1,.63-1.38,2.11,2.11,0,0,1,1.41-.48h2.34V20A3.67,3.67,0,0,1,297.37,17,4.8,4.8,0,0,1,300.61,16a6,6,0,0,1,2.58.54,6.4,6.4,0,0,1,1.8,1.2,36.32,36.32,0,0,0-1,6.3h.18Q305.41,24,308.14,23.91Z"/><path class="cls-2" d="M344.35,54A6.48,6.48,0,0,1,340,55.74a4.71,4.71,0,0,1-3.18-1.08,3.67,3.67,0,0,1-1.26-2.94V36.42a20,20,0,0,0-1-7.32A3.57,3.57,0,0,0,331,26.76q-2.94,0-4.74,3.6t-1.8,10.38q0,6.6.18,8.85a14,14,0,0,0,1.14,4.47,6.52,6.52,0,0,1-4.38,1.68,4.51,4.51,0,0,1-3.24-1.2,4.19,4.19,0,0,1-1.26-3.18L316.81,15A3.82,3.82,0,0,1,318,12a4.33,4.33,0,0,1,3-1,7.22,7.22,0,0,1,2.76.54,7.87,7.87,0,0,1,2,1.14,25.77,25.77,0,0,0-1,5.64q-.24,3.12-.3,8.28v2.64a9.12,9.12,0,0,1,9.12-6.12q4.92,0,7.29,3t2.37,9.09V46.44A21.49,21.49,0,0,0,344.35,54Z"/><path class="cls-2" d="M360.67,54a6.49,6.49,0,0,1-4.5,1.74,4.51,4.51,0,0,1-3.09-1.08,3.71,3.71,0,0,1-1.23-2.94V32.4a22,22,0,0,0-1.14-7.62A6.25,6.25,0,0,1,355,23.1a4.77,4.77,0,0,1,3.21,1,3.69,3.69,0,0,1,1.23,3l.06,19.32A20.59,20.59,0,0,0,360.67,54Zm-8.46-35.13a4.24,4.24,0,0,1-1.32-3.15,4.31,4.31,0,0,1,1.32-3.21,4.39,4.39,0,0,1,3.18-1.29,4.19,4.19,0,0,1,3.12,1.29,4.41,4.41,0,0,1,1.26,3.21,4.34,4.34,0,0,1-1.26,3.15,4.19,4.19,0,0,1-3.12,1.29A4.39,4.39,0,0,1,352.21,18.87Z"/><path class="cls-2" d="M396.49,54a6.63,6.63,0,0,1-4.5,1.74,4.71,4.71,0,0,1-3.18-1.08,3.67,3.67,0,0,1-1.26-2.94V36.42a20.29,20.29,0,0,0-1-7.14A3.52,3.52,0,0,0,383,27q-2.88,0-4.68,3.51t-1.8,10.23q0,6.6.18,8.85a15,15,0,0,0,1.08,4.47,6.52,6.52,0,0,1-4.38,1.68,4.59,4.59,0,0,1-3.3-1.2,4.19,4.19,0,0,1-1.26-3.18V32.1a6.55,6.55,0,0,0-.42-2.43,1.24,1.24,0,0,0-1.2-.75,1.65,1.65,0,0,0-1.56.72,4.73,4.73,0,0,1-.72-2.46,3.73,3.73,0,0,1,1.23-2.91,5,5,0,0,1,3.45-1.11A5.55,5.55,0,0,1,374,24.93a7.94,7.94,0,0,1,1.65,5.31q2.58-7.14,10-7.14,4.92,0,7.29,3t2.37,9.09V46.44A23.93,23.93,0,0,0,396.49,54Z"/><path class="cls-2" d="M404.92,66.69a5.54,5.54,0,0,1-3.21-5.19,4.64,4.64,0,0,1,1.5-3.63,5.61,5.61,0,0,1,3.9-1.35,4.51,4.51,0,0,1,3.6,1.32,5.14,5.14,0,0,0-1.8,4.08,4.08,4.08,0,0,0,1.08,3A4.33,4.33,0,0,0,413.23,66a6.46,6.46,0,0,0,5.91-3.42q2-3.42,2-9.36,0-3,.06-4.44a8.66,8.66,0,0,1-3.33,4.5,10,10,0,0,1-5.73,1.56,9.48,9.48,0,0,1-7.86-3.54q-2.82-3.54-2.82-11.34T405,27.66q3.48-4.56,11.16-4.56a23.8,23.8,0,0,1,7.14,1,16,16,0,0,1,5.58,2.91v25.2q0,8.52-4.23,12.33T413,68.4A17,17,0,0,1,404.92,66.69Zm14.46-18.45A17.74,17.74,0,0,0,421.09,40l.06-12.78a6.07,6.07,0,0,0-2.07-1,9,9,0,0,0-2.55-.36,5.31,5.31,0,0,0-5.34,3.72q-1.44,3.72-1.44,11.22A33.33,33.33,0,0,0,410.2,47a6.31,6.31,0,0,0,1.47,3.27,3.81,3.81,0,0,0,2.82,1A5.28,5.28,0,0,0,419.38,48.24Z"/></g></svg>